<svg width="24" height="24" viewBox="0 0 24 24" fill="none" xmlns="http://www.w3.org/2000/svg">
<path d="M20 21H4C2.89543 21 2 20.1046 2 19C2 17.8954 2.89543 17 4 17H20C21.1046 17 22 17.8954 22 19C22 20.1046 21.1046 21 20 21Z" stroke="currentColor" stroke-width="2" stroke-linecap="round" stroke-linejoin="round"/>
<path d="M4 17L5.5 11C5.77614 10.1716 6.54605 9.60098 7.42083 9.60098H16.5792C17.4539 9.60098 18.2239 10.1716 18.5 11L20 17" stroke="currentColor" stroke-width="2" stroke-linecap="round" stroke-linejoin="round"/>
<path d="M8 6C8 4.89543 8.89543 4 10 4C11.1046 4 12 4.89543 12 6C12 7.10457 11.1046 8 10 8C8.89543 8 8 7.10457 8 6Z" stroke="currentColor" stroke-width="2"/>
<path d="M12 6C12 4.89543 12.8954 4 14 4C15.1046 4 16 4.89543 16 6C16 7.10457 15.1046 8 14 8C12.8954 8 12 7.10457 12 6Z" stroke="currentColor" stroke-width="2"/>
</svg>